<?xml version="1.0"?>

<!-- Generator: Adobe Illustrator 21.1.0, SVG Export Plug-In . SVG Version: 6.00 Build 0) -->
<svg version="1.1" id="Layer_1" xmlns="http://www.w3.org/2000/svg" xmlns:xlink="http://www.w3.org/1999/xlink" x="0px" y="0px" viewBox="0 0 416.5 107.1" style="enable-background:new 0 0 416.5 107.1;" xml:space="preserve" width="416.5" height="107.1">
<style type="text/css"> .st0{fill:#A30000;} .st1{fill:#CC0000;} .st2{fill:#820000;}
</style>
<title>Logotype_RH_OpenShift_wLogo_RGB_Black</title>
<path class="st0" d="M33.9,48l-18.7,6.8c0.2,3,0.7,6,1.5,8.9l17.8-6.5C33.8,54.2,33.6,51.1,33.9,48"></path>
<path class="st0" d="M116.6,27.3c-1.3-2.7-2.8-5.3-4.6-7.8l-18.7,6.8c2.2,2.2,4,4.7,5.5,7.4L116.6,27.3z"></path>
<path class="st1" d="M75.4,22c3.8,1.8,7.2,4.2,10.1,7.2l18.7-6.8C87.1-1.6,53.7-7.2,29.6,9.9C14.3,20.8,5.9,39,7.3,57.7L26,50.9 c1.4-19.1,18.1-33.5,37.2-32C67.4,19.1,71.6,20.2,75.4,22"></path>
<path class="st1" d="M17.8,63.3L0,69.8c1.6,6.5,4.5,12.7,8.4,18.1L27,81.1C22.3,76.2,19.1,70,17.8,63.3"></path>
<path class="st1" d="M95.4,56.2c-0.3,4.2-1.4,8.2-3.1,12C84.1,85.6,63.5,93.2,46,85.1c-3.8-1.8-7.2-4.2-10.1-7.2l-18.7,6.8 c5.3,7.5,12.5,13.5,20.8,17.4c26.8,12.5,58.7,0.9,71.2-25.9c3.9-8.3,5.6-17.6,4.8-26.7L95.4,56.2z"></path>
<path class="st1" d="M100.1,33.4l-17.8,6.5c3.3,6,4.9,12.8,4.4,19.6l18.7-6.8C104.8,46,103,39.4,100.1,33.4"></path>
<path class="st2" d="M33.8,51.8c0-1.3,0-2.5,0.1-3.8l-18.7,6.8c0.1,1.2,0.2,2.4,0.4,3.6L33.8,51.8z"></path>
<path class="st2" d="M113.9,22.4c-0.6-1-1.2-1.9-1.9-2.8l-18.7,6.8c0.8,0.8,1.6,1.7,2.3,2.7L113.9,22.4z"></path>
<path class="st0" d="M17.2,84.7c1.4,2,3,4,4.8,5.8l20.3-7.4c-2.3-1.5-4.5-3.2-6.4-5.2L17.2,84.7z M114.1,49.4l-18.7,6.8 c-0.2,2.7-0.7,5.4-1.6,8l20.3-7.4C114.3,54.3,114.3,51.9,114.1,49.4"></path>
<path d="M151.4,42.9l-3.9-8.1h-2.7v8.1h-6.5V18.8h10.8c1.3,0,2.6,0.1,3.8,0.4c1.1,0.2,2.1,0.7,3,1.4c0.8,0.6,1.5,1.5,1.9,2.4 c0.5,1.1,0.7,2.4,0.7,3.6c0.1,1.6-0.3,3.1-1.2,4.4c-0.8,1.2-1.9,2.1-3.2,2.6l4.8,9.2L151.4,42.9L151.4,42.9z M151.1,25 c-0.6-0.5-1.4-0.8-2.3-0.7h-4v5.3h3.9c0.8,0.1,1.7-0.2,2.4-0.7c0.5-0.5,0.7-1.3,0.7-2C151.8,26.1,151.6,25.5,151.1,25z"></path>
<path d="M163.9,42.9V18.8h18.5v5.6h-11.9v3.2h7.1v5.5h-7.1v4.1h12.1v5.6H163.9z"></path>
<path d="M208,36.5c-0.5,1.4-1.3,2.7-2.5,3.8c-1.2,1-2.6,1.7-4.1,2.1c-1.8,0.5-3.7,0.7-5.6,0.6h-7.8V18.8h8.4c1.7,0,3.5,0.2,5.1,0.6 c1.4,0.3,2.8,1,3.9,2c1.1,1,2,2.3,2.5,3.7c0.6,1.8,0.9,3.7,0.9,5.7C208.8,32.7,208.6,34.6,208,36.5z M201.6,28 c-0.1-0.7-0.5-1.4-0.9-2c-0.5-0.5-1.1-0.9-1.7-1.1c-0.8-0.3-1.7-0.4-2.6-0.4h-1.6v12.7h1.4c0.9,0,1.8-0.1,2.6-0.3 c0.7-0.2,1.3-0.6,1.8-1.1c0.5-0.6,0.8-1.3,1-2c0.2-1,0.3-2,0.3-3C201.9,29.9,201.8,28.9,201.6,28z"></path>
<path d="M240.6,42.9v-9.5h-7.5v9.5h-6.8V18.8h6.8v8.8h7.5v-8.8h6.8v24.1H240.6L240.6,42.9z"></path>
<path d="M268.9,42.9l-1.3-4.2h-7.2l-1.3,4.2h-7.2l8.7-24.1h6.8l8.8,24.1H268.9L268.9,42.9z M265.5,31.8c-0.2-0.8-0.4-1.4-0.5-2 l-0.4-1.5c-0.1-0.5-0.2-0.9-0.3-1.3c-0.1-0.4-0.2-0.8-0.2-1.3c-0.1,0.4-0.1,0.8-0.2,1.2s-0.2,0.8-0.3,1.3l-0.4,1.5l-0.5,2l-0.5,1.6 h4L265.5,31.8z"></path>
<path d="M289.8,24.6v18.3H283V24.6h-6.8v-5.8h20.2v5.8H289.8L289.8,24.6z"></path>
<path d="M305.5,23c-0.3,0.7-0.9,1.3-1.6,1.6c-0.8,0.3-1.7,0.3-2.5,0c-0.7-0.3-1.3-0.9-1.6-1.6c-0.3-0.8-0.3-1.7,0-2.5 c0.3-0.7,0.9-1.3,1.6-1.6c0.8-0.3,1.7-0.3,2.5,0c0.7,0.3,1.3,0.9,1.6,1.6C305.8,21.3,305.8,22.2,305.5,23z M305,20.7 c-0.3-0.6-0.8-1.1-1.4-1.4c-0.7-0.3-1.4-0.3-2.1,0c-0.6,0.3-1.1,0.8-1.4,1.4c-0.3,0.7-0.3,1.4,0,2.1c0.3,0.6,0.8,1.1,1.4,1.4 c0.7,0.3,1.4,0.3,2.1,0c0.6-0.3,1.1-0.8,1.4-1.4C305.3,22.1,305.3,21.4,305,20.7z M303.8,21.7c-0.1,0.2-0.3,0.3-0.5,0.3l0.7,1.4 h-0.7l-0.7-1.3H302v1.3h-0.6V20h1.5c0.1,0,0.3,0,0.4,0.1c0.1,0,0.2,0.1,0.4,0.2c0.1,0.1,0.2,0.2,0.2,0.3c0.1,0.1,0.1,0.3,0.1,0.5 C304,21.3,303.9,21.5,303.8,21.7L303.8,21.7z M303.3,20.7c-0.1-0.1-0.3-0.1-0.4-0.1H302v1h0.9c0.1,0,0.3,0,0.4-0.1 C303.5,21.3,303.5,21,303.3,20.7C303.3,20.8,303.3,20.7,303.3,20.7z"></path>
<path d="M165.6,75.4c-0.6,2.1-1.7,4.2-3.1,5.9c-1.3,1.6-2.9,2.9-4.8,3.9c-3.9,1.8-8.4,1.8-12.3,0c-1.8-0.9-3.5-2.2-4.7-3.8 c-1.4-1.8-2.4-3.8-3-5.9c-0.7-2.4-1.1-5-1.1-7.5c0-2.5,0.3-5.1,1.1-7.5c0.6-2.1,1.6-4.1,3-5.9c1.3-1.6,2.9-2.9,4.8-3.9 c3.9-1.8,8.4-1.8,12.3,0c1.8,0.9,3.5,2.2,4.7,3.8c1.3,1.8,2.4,3.8,3,5.9c0.7,2.4,1.1,5,1.1,7.5C166.7,70.4,166.3,72.9,165.6,75.4z M161.8,61.7c-0.5-1.7-1.3-3.3-2.4-4.8c-0.9-1.2-2.1-2.3-3.5-3c-1.4-0.7-2.9-1.1-4.4-1.1c-1.5,0-3,0.4-4.3,1.1 c-1.4,0.7-2.5,1.8-3.4,3c-1,1.4-1.8,3-2.3,4.7c-0.6,2-0.9,4.1-0.8,6.2c0,2.1,0.3,4.2,0.9,6.2c0.5,1.7,1.3,3.3,2.3,4.8 c0.9,1.3,2.1,2.3,3.5,3c1.4,0.7,2.9,1.1,4.4,1.1c1.5,0,3-0.4,4.3-1.1c1.4-0.7,2.5-1.8,3.5-3c1-1.4,1.8-3,2.3-4.7 c0.6-2,0.9-4.1,0.8-6.2C162.7,65.8,162.4,63.7,161.8,61.7z"></path>
<path d="M200.4,65.4c-0.6,1.3-1.4,2.5-2.5,3.5c-1.1,1-2.4,1.7-3.9,2.1c-1.6,0.5-3.3,0.7-5,0.7h-8.7V86h-4V49.8h13.5 c1.5,0,3.1,0.2,4.6,0.7c1.3,0.4,2.6,1.1,3.6,2c1.1,0.9,1.9,2.1,2.4,3.4C201.6,58.9,201.6,62.3,200.4,65.4z M195.3,55.4 c-1.6-1.4-3.6-2-5.7-1.9h-9.4v14.6h8.8c5.4,0,8.2-2.4,8.2-7.3C197.3,58.8,196.6,56.8,195.3,55.4L195.3,55.4z"></path>
<path d="M209.7,86V49.8h21.9v3.7h-17.8v11.4h10.3v3.7h-10.3v13.8h18.6V86H209.7z"></path>
<path d="M263.8,86l-15.8-24.7c-0.2-0.3-0.4-0.7-0.7-1.1l-0.7-1.3c-0.2-0.4-0.5-0.8-0.7-1.2c-0.2-0.3-0.3-0.6-0.5-0.9V86h-3.9V49.8 h3.9L261.1,75c0.2,0.3,0.4,0.7,0.7,1.1l0.7,1.3c0.2,0.4,0.5,0.8,0.7,1.2c0.2,0.3,0.3,0.6,0.5,0.9V49.8h3.9V86L263.8,86L263.8,86z"></path>
<path d="M300,80.5c-0.5,1.2-1.3,2.3-2.4,3.2c-1.1,0.9-2.4,1.7-3.8,2.1c-1.6,0.5-3.3,0.8-5.1,0.8c-2.4,0-4.7-0.5-6.9-1.4 c-2-0.9-3.8-2.1-5.3-3.6l2.7-3c1.3,1.3,2.8,2.3,4.4,3.2c1.6,0.8,3.4,1.2,5.2,1.2c2,0.1,4-0.5,5.7-1.7c1.4-1.1,2.2-2.8,2.1-4.6 c0-0.8-0.1-1.5-0.4-2.3c-0.3-0.7-0.8-1.4-1.4-1.9c-0.8-0.7-1.7-1.3-2.7-1.7c-1.3-0.7-2.7-1.2-4.1-1.7c-1.7-0.6-3.3-1.3-4.9-2.1 c-1.2-0.6-2.3-1.4-3.2-2.3c-0.8-0.8-1.4-1.7-1.8-2.7c-0.4-1.1-0.6-2.3-0.5-3.5c0-1.3,0.3-2.7,0.8-3.9c0.5-1.1,1.3-2.1,2.3-2.9 c1.1-0.8,2.3-1.5,3.6-1.8c1.5-0.4,3.1-0.6,4.6-0.6c2.1-0.1,4.2,0.3,6.2,1c1.7,0.7,3.4,1.7,4.8,2.8l-2.6,3.2c-1.2-1-2.5-1.9-4-2.5 c-1.5-0.6-3.1-0.9-4.7-0.8c-1.1,0-2.2,0.1-3.2,0.4c-0.8,0.2-1.5,0.6-2.2,1.2c-0.5,0.4-1,1-1.2,1.7c-0.3,0.6-0.4,1.3-0.4,2 c0,0.7,0.1,1.4,0.3,2c0.3,0.7,0.7,1.3,1.2,1.8c0.8,0.7,1.7,1.3,2.7,1.8c1.4,0.7,2.9,1.3,4.4,1.8c1.7,0.6,3.4,1.3,5,2.2 c1.2,0.6,2.3,1.4,3.2,2.4c0.8,0.8,1.4,1.8,1.7,2.8c0.4,1.2,0.5,2.4,0.5,3.6C300.9,77.9,300.6,79.2,300,80.5z"></path>
<path d="M332.8,86V69h-18v17h-4V49.8h4v15.4h18V49.8h4V86L332.8,86L332.8,86z"></path>
<path d="M348.1,86V49.8h4V86L348.1,86L348.1,86z"></path>
<path d="M367.5,53.5v12h9.9v3.7h-9.9V86h-4V49.8h21.2v3.7H367.5L367.5,53.5z"></path>
<path d="M405.8,53.5V86h-4V53.5h-10.7v-3.7h25.3v3.7H405.8z"></path>
</svg>
